<svg xmlns="http://www.w3.org/2000/svg" xmlns:xlink="http://www.w3.org/1999/xlink" viewBox="0,0,256,256" width="48px" height="48px"><g fill="none" fill-rule="nonzero" stroke="none" stroke-width="1" stroke-linecap="butt" stroke-linejoin="none" stroke-miterlimit="10" stroke-dasharray="" stroke-dashoffset="0" font-family="none" font-weight="none" font-size="none" text-anchor="none" style="mix-blend-mode: normal"><path transform="scale(5.33333,5.33333)" d="M24.92773,4.32227l14.21289,11.19727c1.8039,1.42163 2.85938,3.59398 2.85938,5.89063v19.08984c0,1.36359 -1.13641,2.5 -2.5,2.5h-10c-1.36359,0 -2.5,-1.13641 -2.5,-2.5v-10c0,-0.29504 -0.20496,-0.5 -0.5,-0.5h-5c-0.29504,0 -0.5,0.20496 -0.5,0.5v10c0,1.36359 -1.13641,2.5 -2.5,2.5h-10c-1.36359,0 -2.5,-1.13641 -2.5,-2.5v-19.08984c0,-2.29665 1.05548,-4.46899 2.85938,-5.89062l14.21289,-11.19727c0.25109,-0.19842 0.55906,-0.31134 0.87891,-0.32227c0.35332,-0.01099 0.69918,0.10314 0.97656,0.32227z" id="strokeMainSVG" fill="#dddddd"  stroke-linejoin="round"></path><g transform="scale(5.33333,5.33333)" fill="#000000" stroke="none" stroke-linejoin="miter"><path d="M23.95117,4c-0.31984,0.01092 -0.62781,0.12384 -0.87891,0.32227l-14.21289,11.19727c-1.8039,1.42163 -2.85937,3.59398 -2.85937,5.89063v19.08984c0,1.36359 1.13641,2.5 2.5,2.5h10c1.36359,0 2.5,-1.13641 2.5,-2.5v-10c0,-0.29504 0.20496,-0.5 0.5,-0.5h5c0.29504,0 0.5,0.20496 0.5,0.5v10c0,1.36359 1.13641,2.5 2.5,2.5h10c1.36359,0 2.5,-1.13641 2.5,-2.5v-19.08984c0,-2.29665 -1.05548,-4.46899 -2.85937,-5.89062l-14.21289,-11.19727c-0.27738,-0.21912 -0.62324,-0.33326 -0.97656,-0.32227zM24,7.41016l13.28516,10.4668c1.0841,0.85437 1.71484,2.15385 1.71484,3.5332v18.58984h-9v-9.5c0,-1.91495 -1.58505,-3.5 -3.5,-3.5h-5c-1.91495,0 -3.5,1.58505 -3.5,3.5v9.5h-9v-18.58984c0,-1.37935 0.63074,-2.67883 1.71484,-3.5332z"></path></g></g></svg>